<?xml version="1.0" encoding="utf-8"?>
<!-- Generator: Adobe Illustrator 19.2.0, SVG Export Plug-In . SVG Version: 6.00 Build 0)  -->
<svg version="1.1" id="Capa_1" xmlns="http://www.w3.org/2000/svg" xmlns:xlink="http://www.w3.org/1999/xlink" x="0px" y="0px"
	 viewBox="0 0 512 512" style="enable-background:new 0 0 512 512;" xml:space="preserve">
<style type="text/css">
	.st0{fill:#E20074;}
</style>
<g>
	<g>
		<path class="st0" d="M482,246.1H377.4v-30.4c0-44.2-34-80.7-77.2-84.7c-0.1,0-0.2-0.1-0.3-0.1c9.4-10.5,15.1-24.2,15.1-39.3V10
			c0-5.5-4.5-10-10-10h-60.7C218.2,0,197,21.2,197,47.3v44.3c0,15.1,5.7,28.9,15.1,39.3c-0.1,0-0.2,0-0.3,0.1
			c-43.2,4-77.2,40.4-77.2,84.7v30.4H30c-16.5,0-30,13.5-30,30V482c0,16.5,13.5,30,30,30h273c5.5,0,10-4.5,10-10s-4.5-10-10-10H30
			c-5.5,0-10-4.5-10-10V276.1c0-5.5,4.5-10,10-10h452c5.5,0,10,4.5,10,10V482c0,5.5-4.5,10-10,10h-91.5c-5.5,0-10,4.5-10,10
			s4.5,10,10,10H482c16.5,0,30-13.5,30-30V276.1C512,259.6,498.5,246.1,482,246.1z M256,130.7c-21.5,0-39-17.5-39-39V78.5h59.8
			c6.6,0,12.9-1.7,18.3-4.7v17.9C295,113.2,277.5,130.7,256,130.7z M273.4,150.7L256,168.1l-17.4-17.4H273.4z M217,47.3L217,47.3
			c0-15.1,12.3-27.3,27.3-27.3H295v20.1c0,10.1-8.2,18.3-18.3,18.3H217L217,47.3L217,47.3z M357.4,246H154.6v-30.3
			c0-32.9,24.6-60.2,56.3-64.4l38,38c2,2,4.5,2.9,7.1,2.9c2.6,0,5.1-1,7.1-2.9l38-38c31.8,4.3,56.3,31.5,56.3,64.4V246z"/>
	</g>
</g>
<g>
	<g>
		<path d="M355.1,494.9c-1.9-1.9-4.4-2.9-7.1-2.9s-5.2,1.1-7.1,2.9c-1.9,1.9-2.9,4.4-2.9,7.1s1.1,5.2,2.9,7.1
			c1.9,1.9,4.4,2.9,7.1,2.9s5.2-1.1,7.1-2.9c1.9-1.9,2.9-4.4,2.9-7.1S356.9,496.8,355.1,494.9z"/>
	</g>
</g>
<g>
	<g>
		<path class="st0" d="M298,301.9h-84c-11,0-20,9-20,20v15.4c0,5.5,4.5,10,10,10s10-4.5,10-10v-15.4h84v116h-84V413
			c0-5.5-4.5-10-10-10s-10,4.5-10,10v24.9c0,11,9,20,20,20h84c11,0,20-9,20-20v-116C318,310.9,309,301.9,298,301.9z"/>
	</g>
</g>
<g>
	<g>
		<path class="st0" d="M211.1,369c-1.9-1.9-4.4-2.9-7.1-2.9s-5.2,1.1-7.1,2.9c-1.9,1.9-2.9,4.4-2.9,7.1s1.1,5.2,2.9,7.1
			c1.9,1.9,4.4,2.9,7.1,2.9s5.2-1.1,7.1-2.9s2.9-4.4,2.9-7.1C214,373.4,212.9,370.8,211.1,369z"/>
	</g>
</g>
<g>
	<g>
		<path class="st0" d="M452,301.9h-84c-11,0-20,9-20,20v116c0,11,9,20,20,20h84c11,0,20-9,20-20v-116C472,310.9,463,301.9,452,301.9
			z M452,437.9h-84v-116h84V437.9C452,437.9,452,437.9,452,437.9z"/>
	</g>
</g>
<g>
	<g>
		<path class="st0" d="M119,389.9H85c-5.5,0-10,4.5-10,10s4.5,10,10,10h34c5.5,0,10-4.5,10-10S124.5,389.9,119,389.9z"/>
	</g>
</g>
<g>
	<g>
		<path class="st0" d="M119,350H85c-5.5,0-10,4.5-10,10s4.5,10,10,10h34c5.5,0,10-4.5,10-10S124.5,350,119,350z"/>
	</g>
</g>
<g>
	<g>
		<path class="st0" d="M273.1,389.9h-34c-5.5,0-10,4.5-10,10s4.5,10,10,10h34c5.5,0,10-4.5,10-10S278.6,389.9,273.1,389.9z"/>
	</g>
</g>
<g>
	<g>
		<path class="st0" d="M273.1,350h-34c-5.5,0-10,4.5-10,10s4.5,10,10,10h34c5.5,0,10-4.5,10-10S278.6,350,273.1,350z"/>
	</g>
</g>
<g>
	<g>
		<path class="st0" d="M427.3,389.9h-34c-5.5,0-10,4.5-10,10s4.5,10,10,10h34c5.5,0,10-4.5,10-10S432.8,389.9,427.3,389.9z"/>
	</g>
</g>
<g>
	<g>
		<path class="st0" d="M427.3,350h-34c-5.5,0-10,4.5-10,10s4.5,10,10,10h34c5.5,0,10-4.5,10-10S432.8,350,427.3,350z"/>
	</g>
</g>
<g>
	<g>
		<path class="st0" d="M144,301.9H60c-11,0-20,9-20,20v116c0,11,9,20,20,20h84c11,0,20-9,20-20v-116C164,310.9,155,301.9,144,301.9z
			 M144,437.9H60v-116h84V437.9C144,437.9,144,437.9,144,437.9z"/>
	</g>
</g>
</svg>
