<?xml version="1.0" encoding="utf-8"?>
<!-- Generator: Adobe Illustrator 19.2.0, SVG Export Plug-In . SVG Version: 6.00 Build 0)  -->
<svg version="1.1" id="Capa_1" xmlns="http://www.w3.org/2000/svg" xmlns:xlink="http://www.w3.org/1999/xlink" x="0px" y="0px"
	 viewBox="0 0 512 512" style="enable-background:new 0 0 512 512;" xml:space="preserve">
<style type="text/css">
	.st0{fill:#E20074;}
</style>
<g>
	<g>
		<path class="st0" d="M79,349c-1.9-1.9-4.4-2.9-7.1-2.9c-2.6,0-5.2,1.1-7.1,2.9c-1.9,1.9-2.9,4.4-2.9,7.1c0,2.6,1.1,5.2,2.9,7.1
			c1.9,1.9,4.4,2.9,7.1,2.9c2.6,0,5.2-1.1,7.1-2.9c1.9-1.9,2.9-4.4,2.9-7.1C81.9,353.4,80.9,350.9,79,349z"/>
	</g>
</g>
<g>
	<g>
		<path class="st0" d="M390.7,238.5c-22.1-14.8-47.9-22.7-74.5-22.7h-5.8c18.4-15.5,30-38.7,30-64.6V87.1c4.3-8,6.8-17.2,6.8-26.9
			V10c0-5.5-4.5-10-10-10H220.7c-32.3,0-58.5,26.3-58.5,58.5V75c0,9.8,3.3,18.8,8.9,25.9v50.3c0,25.9,11.7,49.1,30,64.6h-5.3
			c-30.4,0-60.2,10.5-83.9,29.5c-23.3,18.7-39.8,45-46.6,74c-1.2,5.4,2.1,10.8,7.5,12c0.8,0.2,1.5,0.3,2.3,0.3
			c4.5,0,8.7-3.1,9.7-7.7c11.1-47.9,50.9-82.4,98.9-87.4l65.1,65.1c2,2,4.5,2.9,7.1,2.9c2.6,0,5.1-1,7.1-2.9l65.1-65.1
			c18.4,1.9,35.9,8.3,51.4,18.6c4.6,3.1,10.8,1.9,13.9-2.7S395.3,241.6,390.7,238.5z M182.2,75V58.5c0-21.2,17.3-38.5,38.5-38.5
			h106.4v40.2c0,20.5-16.7,37.1-37.1,37.1h-85.5C192.2,97.3,182.2,87.3,182.2,75z M256,280.4l-44.5-44.5h43.9c0.1,0,0.3,0,0.4,0
			s0.3,0,0.4,0h44.4L256,280.4z M256.1,215.9h-0.8c-35.4-0.2-64.2-29.1-64.2-64.6v-36.1c4.2,1.4,8.7,2.2,13.4,2.2H290
			c11.2,0,21.6-3.2,30.4-8.8v42.7C320.4,186.8,291.6,215.6,256.1,215.9z"/>
	</g>
</g>
<g>
	<g>
		<path class="st0" d="M276,370.2c-15.3,0-28.2,10.1-32.5,24H140.2c-4.3-13.9-17.2-24-32.5-24c-18.7,0-34,15.3-34,34
			c0,5.7,1.4,11.2,4,15.9l-27.8,27.8c-4.7-2.5-10.2-4-15.9-4c-18.7,0-34,15.3-34,34s15.3,34,34,34s34-15.3,34-34
			c0-5.7-1.4-11.2-4-15.9l27.8-27.8c4.7,2.5,10.2,4,15.9,4c15.3,0,28.2-10.1,32.5-24h103.3c4.3,13.9,17.2,24,32.5,24
			c18.7,0,34-15.3,34-34S294.7,370.2,276,370.2z M34,491.9c-7.7,0-14-6.3-14-14s6.3-14,14-14s14,6.3,14,14S41.7,491.9,34,491.9z
			 M107.7,418.2c-7.7,0-14-6.3-14-14s6.3-14,14-14s14,6.3,14,14S115.4,418.2,107.7,418.2z M276,418.2c-7.7,0-14-6.3-14-14
			s6.3-14,14-14s14,6.3,14,14S283.7,418.2,276,418.2z"/>
	</g>
</g>
<g>
	<g>
		<path class="st0" d="M328.1,356.1c-1.9-1.9-4.4-2.9-7.1-2.9c-2.6,0-5.2,1.1-7.1,2.9c-1.9,1.9-2.9,4.4-2.9,7.1
			c0,2.6,1.1,5.2,2.9,7.1c1.9,1.9,4.4,2.9,7.1,2.9c2.6,0,5.2-1.1,7.1-2.9c1.9-1.9,2.9-4.4,2.9-7.1C331,360.6,330,358,328.1,356.1z"
			/>
	</g>
</g>
<g>
	<g>
		<path class="st0" d="M502,172.1h-35.9c-5.5,0-10,4.5-10,10s4.5,10,10,10H478L341.3,328.8c-3.9,3.9-3.9,10.2,0,14.1
			c2,2,4.5,2.9,7.1,2.9s5.1-1,7.1-2.9L492,206.4v11.6c0,5.5,4.5,10,10,10s10-4.5,10-10V182C512,176.5,507.5,172.1,502,172.1z"/>
	</g>
</g>
<g>
	<g>
		<path class="st0" d="M235.4,142.1c-1.9-1.9-4.4-2.9-7.1-2.9c-2.6,0-5.2,1.1-7.1,2.9c-1.9,1.9-2.9,4.4-2.9,7.1
			c0,2.6,1.1,5.2,2.9,7.1c1.9,1.9,4.4,2.9,7.1,2.9c2.6,0,5.2-1.1,7.1-2.9c1.9-1.9,2.9-4.4,2.9-7.1
			C238.4,146.5,237.3,144,235.4,142.1z"/>
	</g>
</g>
<g>
	<g>
		<path class="st0" d="M290.4,142.1c-1.9-1.9-4.4-2.9-7.1-2.9s-5.2,1.1-7.1,2.9c-1.9,1.9-2.9,4.4-2.9,7.1c0,2.6,1.1,5.2,2.9,7.1
			c1.9,1.9,4.4,2.9,7.1,2.9s5.2-1.1,7.1-2.9c1.9-1.9,2.9-4.4,2.9-7.1C293.4,146.5,292.3,144,290.4,142.1z"/>
	</g>
</g>
<g>
	<g>
		<path class="st0" d="M424,336c-48.5,0-88,39.5-88,88s39.5,88,88,88s88-39.5,88-88S472.5,336,424,336z M424,492
			c-37.5,0-68-30.5-68-68s30.5-68,68-68s68,30.5,68,68S461.5,492,424,492z"/>
	</g>
</g>
<g>
	<g>
		<path class="st0" d="M424,414.6c-4.6,0-8.5-3.1-8.5-6.8c0-3.7,3.9-6.8,8.5-6.8s8.5,3.1,8.5,6.8c0,5.5,4.5,10,10,10s10-4.5,10-10
			c0-11.5-7.7-21.3-18.6-25.1c-0.3-5.2-4.7-9.3-10-9.3s-9.6,4.1-10,9.3c-10.8,3.8-18.6,13.6-18.6,25.1c0,14.8,12.8,26.8,28.5,26.8
			c4.6,0,8.5,3.1,8.5,6.8s-3.9,6.8-8.5,6.8s-8.5-3.1-8.5-6.8c0-5.5-4.5-10-10-10s-10,4.5-10,10c0,11.5,7.8,21.4,18.6,25.1
			c0.7,4.9,4.8,8.7,9.9,8.7s9.2-3.8,9.9-8.7c10.9-3.8,18.6-13.6,18.6-25.1C452.5,426.7,439.7,414.6,424,414.6z"/>
	</g>
</g>
</svg>
