<?xml version="1.0" encoding="iso-8859-1"?>
<!-- Generator: Adobe Illustrator 19.0.0, SVG Export Plug-In . SVG Version: 6.00 Build 0)  -->
<svg version="1.1" id="Capa_1" xmlns="http://www.w3.org/2000/svg" xmlns:xlink="http://www.w3.org/1999/xlink" x="0px" y="0px"
	 viewBox="0 0 512 512" style="enable-background:new 0 0 512 512;" xml:space="preserve">
<g>
	<g>
		<path d="M79.019,348.99c-1.859-1.86-4.439-2.921-7.069-2.921c-2.631,0-5.21,1.061-7.07,2.921c-1.86,1.869-2.93,4.439-2.93,7.079
			c0,2.631,1.069,5.2,2.93,7.07c1.86,1.861,4.439,2.93,7.07,2.93c2.63,0,5.21-1.069,7.069-2.93c1.86-1.87,2.931-4.439,2.931-7.07
			C81.95,353.439,80.88,350.859,79.019,348.99z"/>
	</g>
</g>
<g>
	<g>
		<path d="M390.684,238.508c-22.077-14.818-47.854-22.651-74.544-22.651h-5.84c18.36-15.531,30.049-38.717,30.049-64.593V87.107
			c4.309-8.028,6.761-17.195,6.761-26.927V10c0-5.522-4.478-10-10-10H220.745c-32.268,0-58.519,26.251-58.519,58.519v16.488
			c0,9.769,3.337,18.767,8.919,25.935v50.321c0,25.875,11.688,49.062,30.049,64.593h-5.336c-30.42,0-60.202,10.479-83.862,29.507
			c-23.301,18.738-39.841,45.011-46.572,73.977c-1.25,5.379,2.097,10.753,7.476,12.003c0.762,0.177,1.522,0.262,2.272,0.262
			c4.546,0,8.658-3.12,9.731-7.738c11.126-47.876,50.926-82.387,98.94-87.366l65.084,65.084c1.953,1.952,4.512,2.929,7.071,2.929
			c2.559,0,5.118-0.977,7.071-2.929l65.092-65.091c18.378,1.928,35.943,8.261,51.376,18.619c4.585,3.078,10.798,1.857,13.876-2.729
			S395.269,241.585,390.684,238.508z M182.227,75.007V58.519C182.227,37.28,199.506,20,220.746,20h106.366v40.181
			c0,20.472-16.655,37.127-37.127,37.127h-85.458C192.231,97.308,182.227,87.304,182.227,75.007z M256,280.371l-44.515-44.516
			h43.878c0.129,0.001,0.256,0.01,0.385,0.01c0.129,0,0.256-0.009,0.385-0.01h44.383L256,280.371z M256.133,215.856h-0.77
			c-35.445-0.21-64.217-29.1-64.217-64.593v-36.137c4.208,1.408,8.705,2.182,13.381,2.182h85.458
			c11.153,0,21.563-3.225,30.366-8.774v42.729C320.351,186.756,291.578,215.647,256.133,215.856z"/>
	</g>
</g>
<g>
	<g>
		<path d="M276,370.219c-15.269,0-28.217,10.117-32.497,24H140.216c-4.28-13.883-17.228-24-32.497-24c-18.748,0-34,15.252-34,34
			c0,5.741,1.436,11.151,3.958,15.899l-27.778,27.778c-4.748-2.523-10.158-3.958-15.899-3.958c-18.748,0-34,15.252-34,34
			s15.252,34,34,34s34-15.252,34-34c0-5.741-1.436-11.151-3.958-15.899L91.82,434.26c4.748,2.523,10.158,3.958,15.899,3.958
			c15.269,0,28.217-10.117,32.497-24h103.287c4.28,13.883,17.228,24,32.497,24c18.748,0,34-15.252,34-34
			S294.748,370.219,276,370.219z M34,491.938c-7.72,0-14-6.28-14-14c0-7.72,6.28-14,14-14c7.72,0,14,6.28,14,14
			C48,485.658,41.72,491.938,34,491.938z M107.719,418.219c-7.72,0-14-6.28-14-14c0-7.72,6.28-14,14-14c7.72,0,14,6.28,14,14
			C121.719,411.939,115.438,418.219,107.719,418.219z M276,418.219c-7.72,0-14-6.28-14-14c0-7.72,6.28-14,14-14
			c7.72,0,14,6.28,14,14C290,411.939,283.72,418.219,276,418.219z"/>
	</g>
</g>
<g>
	<g>
		<path d="M328.09,356.13c-1.861-1.86-4.441-2.93-7.07-2.93c-2.64,0-5.22,1.069-7.08,2.93c-1.859,1.86-2.93,4.439-2.93,7.07
			c0,2.63,1.07,5.21,2.93,7.069c1.86,1.87,4.44,2.931,7.08,2.931c2.63,0,5.2-1.061,7.07-2.931c1.86-1.859,2.92-4.439,2.92-7.069
			C331.01,360.569,329.95,358,328.09,356.13z"/>
	</g>
</g>
<g>
	<g>
		<path d="M502,172.05h-35.891c-5.522,0-10,4.478-10,10c0,5.522,4.478,10,10,10h11.917L341.288,328.788
			c-3.905,3.905-3.905,10.237,0,14.143c1.953,1.952,4.512,2.929,7.071,2.929s5.118-0.977,7.071-2.929L492,206.361v11.579
			c0,5.522,4.478,10,10,10c5.522,0,10-4.478,10-10v-35.89C512,176.527,507.522,172.05,502,172.05z"/>
	</g>
</g>
<g>
	<g>
		<path d="M235.42,142.1c-1.86-1.859-4.44-2.93-7.07-2.93c-2.64,0-5.21,1.07-7.07,2.93c-1.869,1.86-2.93,4.44-2.93,7.08
			c0,2.63,1.061,5.2,2.93,7.07c1.86,1.859,4.431,2.92,7.07,2.92c2.63,0,5.21-1.061,7.07-2.92c1.859-1.87,2.93-4.44,2.93-7.07
			C238.35,146.54,237.279,143.96,235.42,142.1z"/>
	</g>
</g>
<g>
	<g>
		<path d="M290.439,142.1c-1.859-1.859-4.439-2.93-7.069-2.93s-5.21,1.07-7.07,2.93c-1.86,1.86-2.93,4.44-2.93,7.08
			c0,2.63,1.069,5.21,2.93,7.07c1.86,1.859,4.44,2.92,7.07,2.92s5.21-1.061,7.069-2.92c1.86-1.86,2.931-4.44,2.931-7.07
			C293.37,146.54,292.3,143.96,290.439,142.1z"/>
	</g>
</g>
<g>
	<g>
		<path d="M424,336c-48.523,0-88,39.477-88,88s39.477,88,88,88s88-39.477,88-88S472.523,336,424,336z M424,492
			c-37.495,0-68-30.505-68-68s30.505-68,68-68s68,30.505,68,68S461.495,492,424,492z"/>
	</g>
</g>
<g>
	<g>
		<path d="M424.002,414.633c-4.62,0-8.523-3.119-8.523-6.812c-0.002-3.692,3.901-6.811,8.521-6.811s8.523,3.119,8.523,6.811
			c0,5.522,4.478,10,10,10c5.522,0,10-4.478,10-10c0-11.489-7.73-21.31-18.557-25.118c-0.347-5.208-4.67-9.329-9.966-9.329
			c-5.296,0-9.619,4.121-9.966,9.329c-10.827,3.808-18.557,13.629-18.557,25.118c0,14.784,12.796,26.812,28.523,26.812
			c4.62,0,8.523,3.119,8.523,6.811s-3.903,6.811-8.523,6.811s-8.523-3.119-8.523-6.811c0-5.522-4.478-10-10-10
			c-5.522,0-10,4.478-10,10c0,11.513,7.762,21.352,18.624,25.143c0.657,4.887,4.833,8.66,9.9,8.66c5.067,0,9.243-3.773,9.9-8.66
			c10.862-3.791,18.624-13.63,18.624-25.143C452.525,426.661,439.729,414.633,424.002,414.633z"/>
	</g>
</g>
<g>
</g>
<g>
</g>
<g>
</g>
<g>
</g>
<g>
</g>
<g>
</g>
<g>
</g>
<g>
</g>
<g>
</g>
<g>
</g>
<g>
</g>
<g>
</g>
<g>
</g>
<g>
</g>
<g>
</g>
</svg>
