<?xml version="1.0" encoding="utf-8"?>
<!-- Generator: Adobe Illustrator 19.2.0, SVG Export Plug-In . SVG Version: 6.00 Build 0)  -->
<svg version="1.1" id="Capa_1" xmlns="http://www.w3.org/2000/svg" xmlns:xlink="http://www.w3.org/1999/xlink" x="0px" y="0px"
	 viewBox="0 0 54 54" style="enable-background:new 0 0 54 54;" xml:space="preserve">
<style type="text/css">
	.st0{fill:#858585;}
</style>
<g>
	<path class="st0" d="M43,20.1v-5.6C43,6.5,35.8,0,27,0S11,6.5,11,14.5v5.6c-3.4,0.6-6,3.5-6,7.1v19.5c0,4,3.2,7.2,7.2,7.2h29.5
		c4,0,7.2-3.2,7.2-7.2V27.2C49,23.7,46.4,20.7,43,20.1z M13,14.5C13,7.6,19.3,2,27,2s14,5.6,14,12.5V20H13V14.5z M47,46.8
		c0,2.9-2.3,5.2-5.2,5.2H12.2C9.3,52,7,49.7,7,46.8V27.2c0-2.9,2.3-5.2,5.2-5.2h29.5c2.9,0,5.2,2.3,5.2,5.2V46.8z"/>
	<path class="st0" d="M27,28c-2.2,0-4,1.8-4,4v6c0,2.2,1.8,4,4,4s4-1.8,4-4v-6C31,29.8,29.2,28,27,28z M29,38c0,1.1-0.9,2-2,2
		s-2-0.9-2-2v-6c0-1.1,0.9-2,2-2s2,0.9,2,2V38z"/>
</g>
</svg>
