<?xml version="1.0" encoding="iso-8859-1"?>
<!-- Generator: Adobe Illustrator 19.0.0, SVG Export Plug-In . SVG Version: 6.00 Build 0)  -->
<svg version="1.1" id="Capa_1" xmlns="http://www.w3.org/2000/svg" xmlns:xlink="http://www.w3.org/1999/xlink" x="0px" y="0px"
	 viewBox="0 0 512 512" style="enable-background:new 0 0 512 512;" xml:space="preserve">
<g>
	<g>
		<path d="M482,246.127H377.448v-30.391c0-44.233-33.955-80.67-77.166-84.653c-0.102-0.029-0.206-0.05-0.309-0.075
			c9.359-10.451,15.064-24.239,15.064-39.339V10c0-5.523-4.477-10-10-10h-60.742c-26.099,0-47.332,21.233-47.332,47.332v44.337
			c0,15.1,5.705,28.888,15.064,39.339c-0.103,0.025-0.207,0.047-0.309,0.075c-43.211,3.983-77.166,40.42-77.166,84.653v30.391H30
			c-16.542,0-30,13.458-30,30V482c0,16.542,13.458,30,30,30h273c5.523,0,10-4.478,10-10c0-5.522-4.477-10-10-10H30
			c-5.514,0-10-4.486-10-10V276.127c0-5.514,4.486-10,10-10h452c5.514,0,10,4.486,10,10V482c0,5.514-4.486,10-10,10h-91.5
			c-5.523,0-10,4.478-10,10c0,5.522,4.477,10,10,10H482c16.542,0,30-13.458,30-30V276.127C512,259.585,498.542,246.127,482,246.127z
			 M256.001,130.707c-21.525,0-39.037-17.512-39.037-39.037V78.453h59.764c6.628,0,12.867-1.693,18.31-4.667V91.67
			C295.038,113.195,277.526,130.707,256.001,130.707z M273.432,150.706L256,168.138l-17.432-17.432H273.432z M216.962,47.332h0.001
			c0-15.071,12.261-27.332,27.332-27.332h50.742v20.144c0,10.096-8.214,18.31-18.31,18.31h-59.765V47.332z M357.448,246H154.552
			v-30.264c0-32.906,24.573-60.164,56.33-64.431l38.047,38.047c1.953,1.953,4.512,2.929,7.071,2.929s5.119-0.976,7.071-2.929
			l38.047-38.047c31.757,4.267,56.33,31.525,56.33,64.431V246z"/>
	</g>
</g>
<g>
	<g>
		<path d="M355.07,494.93c-1.86-1.86-4.44-2.93-7.07-2.93s-5.21,1.069-7.07,2.93c-1.86,1.86-2.93,4.44-2.93,7.07
			s1.07,5.21,2.93,7.069c1.86,1.86,4.44,2.931,7.07,2.931s5.21-1.07,7.07-2.931c1.86-1.859,2.93-4.439,2.93-7.069
			S356.93,496.79,355.07,494.93z"/>
	</g>
</g>
<g>
	<g>
		<path d="M298,301.938h-84c-11.028,0-20,8.972-20,20v15.396c0,5.522,4.477,10,10,10s10-4.478,10-10v-15.396h84v116h-84V413
			c0-5.522-4.477-10-10-10s-10,4.478-10,10v24.938c0,11.028,8.972,20,20,20h84c11.028,0,20-8.972,20-20v-116
			C318,310.909,309.028,301.938,298,301.938z"/>
	</g>
</g>
<g>
	<g>
		<path d="M211.07,368.98c-1.86-1.87-4.44-2.93-7.07-2.93s-5.21,1.06-7.07,2.93c-1.86,1.86-2.93,4.44-2.93,7.07s1.07,5.21,2.93,7.07
			c1.86,1.859,4.44,2.93,7.07,2.93s5.21-1.07,7.07-2.93s2.93-4.44,2.93-7.07C214,373.41,212.93,370.84,211.07,368.98z"/>
	</g>
</g>
<g>
	<g>
		<path d="M452,301.938h-84c-11.028,0-20,8.972-20,20v116c0,11.028,8.972,20,20,20h84c11.028,0,20-8.972,20-20v-116
			C472,310.91,463.028,301.938,452,301.938z M452,437.938h-84v-116h84l0.013,115.999C452.013,437.937,452.009,437.938,452,437.938z"
			/>
	</g>
</g>
<g>
	<g>
		<path d="M119,389.906H85c-5.523,0-10,4.478-10,10c0,5.522,4.477,10,10,10h34c5.523,0,10-4.478,10-10
			C129,394.384,124.523,389.906,119,389.906z"/>
	</g>
</g>
<g>
	<g>
		<path d="M119,349.969H85c-5.523,0-10,4.478-10,10c0,5.522,4.477,10,10,10h34c5.523,0,10-4.478,10-10
			C129,354.447,124.523,349.969,119,349.969z"/>
	</g>
</g>
<g>
	<g>
		<path d="M273.127,389.906h-34c-5.523,0-10,4.478-10,10c0,5.522,4.477,10,10,10h34c5.523,0,10-4.478,10-10
			C283.127,394.384,278.65,389.906,273.127,389.906z"/>
	</g>
</g>
<g>
	<g>
		<path d="M273.127,349.969h-34c-5.523,0-10,4.478-10,10c0,5.522,4.477,10,10,10h34c5.523,0,10-4.478,10-10
			C283.127,354.447,278.65,349.969,273.127,349.969z"/>
	</g>
</g>
<g>
	<g>
		<path d="M427.254,389.906h-34c-5.523,0-10,4.478-10,10c0,5.522,4.477,10,10,10h34c5.523,0,10-4.478,10-10
			C437.254,394.384,432.777,389.906,427.254,389.906z"/>
	</g>
</g>
<g>
	<g>
		<path d="M427.254,349.969h-34c-5.523,0-10,4.478-10,10c0,5.522,4.477,10,10,10h34c5.523,0,10-4.478,10-10
			C437.254,354.447,432.777,349.969,427.254,349.969z"/>
	</g>
</g>
<g>
	<g>
		<path d="M144,301.938H60c-11.028,0-20,8.972-20,20v116c0,11.028,8.972,20,20,20h84c11.028,0,20-8.972,20-20v-116
			C164,310.91,155.028,301.938,144,301.938z M144,437.938H60v-116h84l0.013,115.999C144.013,437.937,144.009,437.938,144,437.938z"
			/>
	</g>
</g>
<g>
</g>
<g>
</g>
<g>
</g>
<g>
</g>
<g>
</g>
<g>
</g>
<g>
</g>
<g>
</g>
<g>
</g>
<g>
</g>
<g>
</g>
<g>
</g>
<g>
</g>
<g>
</g>
<g>
</g>
</svg>
