<?xml version="1.0" encoding="utf-8"?>
<!-- Generator: Adobe Illustrator 19.2.0, SVG Export Plug-In . SVG Version: 6.00 Build 0)  -->
<svg version="1.1" id="Capa_1" xmlns="http://www.w3.org/2000/svg" xmlns:xlink="http://www.w3.org/1999/xlink" x="0px" y="0px"
	 viewBox="0 0 60 60" style="enable-background:new 0 0 60 60;" xml:space="preserve">
<style type="text/css">
	.st0{fill:#858585;}
</style>
<path class="st0" d="M60,20.2c0,0,0-0.1,0-0.1c0,0,0-0.1,0-0.1c0,0,0-0.1,0-0.1c0,0,0-0.1,0-0.1c0,0,0,0,0-0.1c0,0,0,0,0,0
	s0,0,0-0.1l-10-16c0-0.1-0.1-0.1-0.2-0.2c0,0,0,0,0,0c-0.1-0.1-0.2-0.1-0.3-0.2c0,0,0,0,0,0c0,0,0,0,0,0C49.2,3,49.1,3,49,3H11
	c-0.1,0-0.2,0-0.3,0.1c0,0,0,0,0,0c0,0,0,0,0,0c-0.1,0-0.2,0.1-0.3,0.2c0,0,0,0,0,0c-0.1,0.1-0.1,0.1-0.2,0.2l-10,16c0,0,0,0,0,0.1
	s0,0,0,0c0,0,0,0,0,0.1c0,0,0,0.1,0,0.1c0,0,0,0.1,0,0.1c0,0,0,0.1,0,0.1c0,0,0,0.1,0,0.1c0,0,0,0.1,0,0.1c0,0,0,0.1,0,0.1
	c0,0,0,0,0,0.1c0,0,0,0.1,0.1,0.1c0,0,0,0,0,0.1l29,36c0,0,0,0,0,0l0,0c0,0,0,0,0,0c0.1,0.1,0.2,0.2,0.3,0.2c0,0,0.1,0,0.1,0
	C29.7,57,29.9,57,30,57c0.1,0,0.2,0,0.3-0.1c0,0,0,0,0,0c0.1,0,0.1-0.1,0.1-0.1c0.1,0,0.1-0.1,0.2-0.2c0,0,0,0,0,0l29-36
	c0,0,0,0,0-0.1c0,0,0,0,0.1-0.1c0,0,0,0,0-0.1c0,0,0-0.1,0-0.1C60,20.3,60,20.2,60,20.2z M32.1,5h15.5l-4.9,13L32.1,5z M40.9,19
	H19.1L30,5.6L40.9,19z M17.2,18.1L12.4,5h15.5L17.2,18.1z M41.6,21L29.8,52.6L18.3,21H41.6z M49.2,6.2l8,12.7H44.5L49.2,6.2z
	 M10.8,6.3L15.4,19H2.8L10.8,6.3z M16.1,21L27,50.7L3.1,21H16.1z M32.4,51.4L43.7,21h13.2L32.4,51.4z"/>
</svg>
