<?xml version="1.0" encoding="utf-8"?>
<!-- Generator: Adobe Illustrator 19.2.0, SVG Export Plug-In . SVG Version: 6.00 Build 0)  -->
<svg version="1.1" id="Capa_1" xmlns="http://www.w3.org/2000/svg" xmlns:xlink="http://www.w3.org/1999/xlink" x="0px" y="0px"
	 viewBox="0 0 60 60" style="enable-background:new 0 0 60 60;" xml:space="preserve">
<style type="text/css">
	.st0{fill:#858585;}
</style>
<path class="st0" d="M57.5,21.5H55v-7h-2v-4H25.1l-3.6-5H2.7C1.2,5.5,0,6.7,0,8.2v43.7h0c0,0.6,0.2,1.1,0.5,1.6c0.5,0.6,1.2,1,2,1
	h44.8c1.2,0,2.2-0.8,2.5-1.8l10.2-28v-0.2C60,22.8,58.9,21.5,57.5,21.5z M53,21.5h-8v-1c0-0.6-0.4-1-1-1s-1,0.4-1,1v1h-5v-1
	c0-0.6-0.4-1-1-1s-1,0.4-1,1v1h-5v-1c0-0.6-0.4-1-1-1s-1,0.4-1,1v1h-5v-1c0-0.6-0.4-1-1-1s-1,0.4-1,1v1h-5v-1c0-0.6-0.4-1-1-1
	s-1,0.4-1,1v1h-2.3c-0.1,0-0.3,0-0.4,0c-0.5,0.1-0.9,0.3-1.3,0.6v-5.7h42V21.5z M5,37.8V22.5h5.7c-0.2,0.2-0.3,0.5-0.4,0.8L10,24.2
	L5,37.8z M9,20.5H6.4L7,19.9l2-2V20.5z M51,12.5v2H9.6L7,17.1v-4.6h19.5H51z M2,8.2c0-0.4,0.3-0.7,0.7-0.7h17.8l2.1,3H5v8.6l-2,2
	v22.1l-1,2.7V8.2z M47.9,52.1c-0.1,0.2-0.3,0.4-0.5,0.4H2.6c-0.2,0-0.4-0.1-0.4-0.2C2.1,52.2,2,52,2,51.9l1-2.8v0L12.2,24l0-0.1
	c0.1-0.2,0.3-0.4,0.5-0.4H55h2.5c0.4,0,0.5,0.5,0.5,0.8L47.9,52.1z"/>
</svg>
