<?xml version="1.0" encoding="utf-8"?>
<!-- Generator: Adobe Illustrator 19.2.0, SVG Export Plug-In . SVG Version: 6.00 Build 0)  -->
<svg version="1.1" id="Layer_1" xmlns="http://www.w3.org/2000/svg" xmlns:xlink="http://www.w3.org/1999/xlink" x="0px" y="0px"
	 viewBox="0 0 512 512" style="enable-background:new 0 0 512 512;" xml:space="preserve">
<style type="text/css">
	.st0{fill:#858585;}
</style>
<g>
	<g>
		<path class="st0" d="M454.7,161.9l-87-87c-6.3-6.3-16.3-6.6-22.9-1.1l-17.6,8.8l-6.9-6.9l9.4-18.7c5.8-11.8,0.8-19.4-2.7-22.9
			L297.8,5c-3.2-3.2-7.5-5-12.1-5h0c-4.6,0-8.8,1.8-12,5l-72.4,72.4c-3.2,3.2-5,7.5-5,12.1s1.8,8.8,5,12.1l29.3,29.3
			c3.4,3.4,10.9,8.3,22.8,2.5L272,124l6.9,6.9l-8.8,17.6c-2.5,3-3.9,6.9-3.9,10.9c0,4.6,1.8,8.8,5,12.1l34.7,34.7
			c3.3,3.3,8.7,3.3,12.1,0c3.3-3.3,3.3-8.7,0-12.1l-34.7-34.7c0.7-0.6,1.2-1.4,1.6-2.2l12.1-24.1c1.6-3.3,1-7.3-1.6-9.8l-15.6-15.6
			c-2.6-2.6-6.6-3.2-9.8-1.6l-24.1,12c-2.1,1.1-3,0.9-3.2,0.7l-29.3-29.3l72.4-72.4l29.4,29.5c0,0,0.1,0.9-0.9,2.9l-12.1,24.1
			c-1.6,3.3-1,7.3,1.6,9.8L319.4,99c2.6,2.6,6.6,3.2,9.9,1.6l24.1-12.1c0.8-0.4,1.6-0.9,2.2-1.6l87.6,87.5
			c0.5,0.4,51.7,43.5,51.7,90.1c0,18.7,0,31.9-6.5,50.5c-21.8-71.1-63.7-99-65.7-100.3c-2.4-1.6-5.4-1.8-8-0.7l-50.4,22
			c-2.6,1.2-4.1,1.1-4.2,1.1l-21.2-21.3c-1.6-1.6-3.7-2.9-6-2.5c-2.3,0-4.4,0.9-6,2.5L53.3,489.3c-1.4,1.6-6.1,5.7-10.7,5.7
			c-4.7,0-9.2-4-11-6l-8.9-8.9c-1.6-1.4-5.7-6.1-5.7-10.7c0-4.5,4.2-9.4,6-11l251.7-251.7c3.3-3.3,3.3-8.7,0-12.1
			c-3.3-3.3-8.7-3.3-12.1,0L11.4,445.9c-1.2,1-11.4,10.5-11.4,23.4c0,13.1,10.3,22.5,11,23.1l8,8c1,1.2,10.1,11.6,23.6,11.6
			c13.1,0,22.5-10.3,23.1-11l267-267l15.2,15.3c5.6,5.6,14,6.5,23.2,2.4l45.9-20c11.3,9.2,46.8,42.6,61.1,111.4
			c0.7,3.6,3.7,6.3,7.3,6.7c3.5,0.4,7.1-1.4,8.7-4.7c18-35.9,18-54.7,18-80.6C512,209.9,456.5,163.3,454.7,161.9z"/>
	</g>
</g>
</svg>
